# xmcd
#
# Track frame offsets:
#	150
#	13171
#	24570
#	38207
#	51945
#	66021
#	78447
#	93633
#	112132
#	121870
#	138711
#	154923
#	167848
#	180026
#	192300
#	204514
#
# Disc length: 2965 seconds
#
# Revision: 0
# Processed by: cddbd v1.5.2PL0 Copyright (c) Steve Scherf et al.
# Submitted via: dBpowerAMP V4.0
#
DISCID=dc0b9310
DTITLE=Sydney Devine - The Best Of Sydney Devine
DYEAR=2004
DGENRE=Country
TTITLE0=Ten Guitars
TTITLE1=Eighteen Yellow Roses
TTITLE2=Road To Dundee
TTITLE3=Two Little Orphans
TTITLE4=Help Me Make It Through The Night
TTITLE5=Gentle Mother
TTITLE6=Family Bible
TTITLE7=When You And I Were Young Maggie Blues
TTITLE8=Bye Bye Love
TTITLE9=Old Shep
TTITLE10=Old Rugged Cross
TTITLE11=I Love You Because
TTITLE12=Lovesick Blues
TTITLE13=Rose Marie
TTITLE14=Send Me The Pillow You Dream On
TTITLE15=Nobody's Child
EXTD=
EXTT0=
EXTT1=
EXTT2=
EXTT3=
EXTT4=
EXTT5=
EXTT6=
EXTT7=
EXTT8=
EXTT9=
EXTT10=
EXTT11=
EXTT12=
EXTT13=
EXTT14=
EXTT15=
PLAYORDER=
